STARTFONT 2.3
FONT -FontForge-Zen Loop-Book-R-Normal--10-100-72-72-P-31-ISO10646-1
SIZE 10 72 72  4
FONTBOUNDINGBOX 9 12 -1 -3
COMMENT "Generated by fontforge, http://fontforge.sourceforge.net"
COMMENT "Copyright 2021 The Zen-Loop Project Authors (https://github.com/googlefonts/zen-loop)"
STARTPROPERTIES 40
FOUNDRY "FontForge"
FAMILY_NAME "Zen Loop"
WEIGHT_NAME "Book"
SLANT "R"
SETWIDTH_NAME "Normal"
ADD_STYLE_NAME ""
PIXEL_SIZE 10
POINT_SIZE 100
RESOLUTION_X 72
RESOLUTION_Y 72
SPACING "P"
AVERAGE_WIDTH 31
CHARSET_REGISTRY "ISO10646"
CHARSET_ENCODING "1"
FONTNAME_REGISTRY ""
CHARSET_COLLECTIONS "ISO10646-1"
BITS_PER_PIXEL 4
FONT_NAME "ZenLoop-Regular"
FACE_NAME "Zen Loop Regular"
COPYRIGHT "Copyright 2021 The Zen-Loop Project Authors (https://github.com/googlefonts/zen-loop)"
FONT_VERSION "1.000; ttfautohint (v1.8.3)"
FONT_ASCENT 8
FONT_DESCENT 2
UNDERLINE_POSITION -1
UNDERLINE_THICKNESS 1
X_HEIGHT 4
CAP_HEIGHT 6
RAW_ASCENT 800
RAW_DESCENT 200
NORM_SPACE 2
RELATIVE_WEIGHT 40
RELATIVE_SETWIDTH 50
SUPERSCRIPT_X 0
SUPERSCRIPT_Y 3
SUPERSCRIPT_SIZE 6
SUBSCRIPT_X 0
SUBSCRIPT_Y 0
SUBSCRIPT_SIZE 6
AVG_LOWERCASE_WIDTH 28
AVG_UPPERCASE_WIDTH 36
ENDPROPERTIES
CHARS 248
STARTCHAR CR
ENCODING 13
SWIDTH 600 0
DWIDTH 6 0
BBX 1 1 0 0
BITMAP
00
ENDCHAR
STARTCHAR space
ENCODING 32
SWIDTH 240 0
DWIDTH 2 0
BBX 1 1 0 0
BITMAP
00
ENDCHAR
STARTCHAR exclam
ENCODING 33
SWIDTH 141 0
DWIDTH 1 0
BBX 1 7 0 0
BITMAP
30
30
30
30
30
00
30
ENDCHAR
STARTCHAR quotedbl
ENCODING 34
SWIDTH 195 0
DWIDTH 2 0
BBX 2 2 0 5
BITMAP
33
33
ENDCHAR
STARTCHAR numbersign
ENCODING 35
SWIDTH 454 0
DWIDTH 5 0
BBX 5 7 0 0
BITMAP
021300
030300
163610
031300
265300
123000
303000
ENDCHAR
STARTCHAR dollar
ENCODING 36
SWIDTH 356 0
DWIDTH 4 0
BBX 4 9 0 -1
BITMAP
0300
2640
3300
3400
0620
0331
2303
3640
0300
ENDCHAR
STARTCHAR percent
ENCODING 37
SWIDTH 470 0
DWIDTH 5 0
BBX 5 7 0 0
BITMAP
342300
304300
133000
005400
025130
033030
133410
ENDCHAR
STARTCHAR ampersand
ENCODING 38
SWIDTH 520 0
DWIDTH 5 0
BBX 5 7 0 0
BITMAP
023200
031200
034000
043220
314300
303400
233230
ENDCHAR
STARTCHAR quotesingle
ENCODING 39
SWIDTH 121 0
DWIDTH 1 0
BBX 1 2 0 5
BITMAP
30
30
ENDCHAR
STARTCHAR parenleft
ENCODING 40
SWIDTH 233 0
DWIDTH 2 0
BBX 2 8 0 -1
BITMAP
04
03
21
30
30
21
04
03
ENDCHAR
STARTCHAR parenright
ENCODING 41
SWIDTH 233 0
DWIDTH 2 0
BBX 2 8 0 0
BITMAP
30
22
03
03
03
03
12
30
ENDCHAR
STARTCHAR asterisk
ENCODING 42
SWIDTH 313 0
DWIDTH 3 0
BBX 3 3 0 4
BITMAP
0300
2820
1110
ENDCHAR
STARTCHAR plus
ENCODING 43
SWIDTH 577 0
DWIDTH 6 0
BBX 6 5 0 0
BITMAP
003000
003000
135331
003000
003000
ENDCHAR
STARTCHAR comma
ENCODING 44
SWIDTH 145 0
DWIDTH 1 0
BBX 1 2 0 -1
BITMAP
30
40
ENDCHAR
STARTCHAR hyphen
ENCODING 45
SWIDTH 286 0
DWIDTH 3 0
BBX 3 1 0 3
BITMAP
2310
ENDCHAR
STARTCHAR period
ENCODING 46
SWIDTH 181 0
DWIDTH 2 0
BBX 1 1 0 0
BITMAP
30
ENDCHAR
STARTCHAR slash
ENCODING 47
SWIDTH 292 0
DWIDTH 3 0
BBX 3 9 0 -1
BITMAP
0020
0030
0030
0300
0300
0300
3100
3000
3000
ENDCHAR
STARTCHAR zero
ENCODING 48
SWIDTH 378 0
DWIDTH 4 0
BBX 4 7 0 0
BITMAP
1440
4012
3004
3003
3004
3012
1440
ENDCHAR
STARTCHAR one
ENCODING 49
SWIDTH 303 0
DWIDTH 3 0
BBX 3 7 0 0
BITMAP
2500
0300
0300
0300
0300
0300
2630
ENDCHAR
STARTCHAR two
ENCODING 50
SWIDTH 343 0
DWIDTH 3 0
BBX 3 7 0 0
BITMAP
2440
0030
0040
0040
0400
3100
5330
ENDCHAR
STARTCHAR three
ENCODING 51
SWIDTH 377 0
DWIDTH 4 0
BBX 4 7 0 0
BITMAP
1340
0030
0360
1442
0003
0003
2340
ENDCHAR
STARTCHAR four
ENCODING 52
SWIDTH 389 0
DWIDTH 4 0
BBX 4 7 0 0
BITMAP
0030
0310
0330
2130
3362
0030
0030
ENDCHAR
STARTCHAR five
ENCODING 53
SWIDTH 372 0
DWIDTH 4 0
BBX 4 8 0 0
BITMAP
0001
0520
0300
1630
4312
3103
0003
2340
ENDCHAR
STARTCHAR six
ENCODING 54
SWIDTH 360 0
DWIDTH 4 0
BBX 4 7 0 0
BITMAP
0220
0400
3100
3330
3013
3003
2340
ENDCHAR
STARTCHAR seven
ENCODING 55
SWIDTH 321 0
DWIDTH 3 0
BBX 3 7 0 0
BITMAP
2350
0030
0210
0300
0300
2200
3000
ENDCHAR
STARTCHAR eight
ENCODING 56
SWIDTH 377 0
DWIDTH 4 0
BBX 4 7 0 0
BITMAP
2340
3003
2231
0540
4022
3003
2331
ENDCHAR
STARTCHAR nine
ENCODING 57
SWIDTH 360 0
DWIDTH 4 0
BBX 4 7 0 0
BITMAP
2440
3021
3012
1351
0030
0030
0400
ENDCHAR
STARTCHAR colon
ENCODING 58
SWIDTH 181 0
DWIDTH 2 0
BBX 1 5 0 0
BITMAP
30
00
00
00
30
ENDCHAR
STARTCHAR semicolon
ENCODING 59
SWIDTH 165 0
DWIDTH 2 0
BBX 1 6 0 -1
BITMAP
30
00
00
00
30
40
ENDCHAR
STARTCHAR less
ENCODING 60
SWIDTH 482 0
DWIDTH 5 0
BBX 5 5 0 0
BITMAP
000110
013300
340000
024100
000210
ENDCHAR
STARTCHAR equal
ENCODING 61
SWIDTH 577 0
DWIDTH 6 0
BBX 6 3 0 1
BITMAP
133331
000000
133331
ENDCHAR
STARTCHAR greater
ENCODING 62
SWIDTH 482 0
DWIDTH 5 0
BBX 5 5 0 0
BITMAP
220000
024100
000510
033000
100000
ENDCHAR
STARTCHAR question
ENCODING 63
SWIDTH 300 0
DWIDTH 3 0
BBX 3 7 0 0
BITMAP
3330
0030
0210
0300
0300
0000
0300
ENDCHAR
STARTCHAR at
ENCODING 64
SWIDTH 748 0
DWIDTH 7 0
BBX 7 7 0 0
BITMAP
02346310
13043040
30302030
30313030
30342040
13333310
02333410
ENDCHAR
STARTCHAR A
ENCODING 65
SWIDTH 414 0
DWIDTH 4 0
BBX 4 7 0 0
BITMAP
0240
0440
0440
0431
3545
4004
3003
ENDCHAR
STARTCHAR B
ENCODING 66
SWIDTH 375 0
DWIDTH 4 0
BBX 4 7 0 0
BITMAP
4340
3021
3451
3360
3003
3012
4340
ENDCHAR
STARTCHAR C
ENCODING 67
SWIDTH 366 0
DWIDTH 4 0
BBX 4 7 0 0
BITMAP
0431
3000
3000
3000
3000
3000
0431
ENDCHAR
STARTCHAR D
ENCODING 68
SWIDTH 396 0
DWIDTH 4 0
BBX 4 7 0 0
BITMAP
4340
3003
3003
3003
3003
3003
4340
ENDCHAR
STARTCHAR E
ENCODING 69
SWIDTH 309 0
DWIDTH 3 0
BBX 3 7 0 0
BITMAP
4320
3000
3000
4320
3000
3000
4320
ENDCHAR
STARTCHAR F
ENCODING 70
SWIDTH 299 0
DWIDTH 3 0
BBX 3 7 0 0
BITMAP
4320
3000
3000
4320
3000
3000
3000
ENDCHAR
STARTCHAR G
ENCODING 71
SWIDTH 382 0
DWIDTH 4 0
BBX 4 7 0 0
BITMAP
0431
3000
3000
3032
3003
3003
0432
ENDCHAR
STARTCHAR H
ENCODING 72
SWIDTH 425 0
DWIDTH 4 0
BBX 4 7 0 0
BITMAP
3003
3003
3003
4445
3003
3003
3003
ENDCHAR
STARTCHAR I
ENCODING 73
SWIDTH 141 0
DWIDTH 1 0
BBX 1 7 0 0
BITMAP
30
30
30
30
30
30
30
ENDCHAR
STARTCHAR J
ENCODING 74
SWIDTH 142 0
DWIDTH 1 0
BBX 2 9 -1 -2
BITMAP
03
03
03
03
03
03
03
03
23
ENDCHAR
STARTCHAR K
ENCODING 75
SWIDTH 401 0
DWIDTH 4 0
BBX 4 7 0 0
BITMAP
2112
2140
5640
6350
2113
2103
2103
ENDCHAR
STARTCHAR L
ENCODING 76
SWIDTH 347 0
DWIDTH 3 0
BBX 3 7 0 0
BITMAP
3000
3000
3000
3000
3000
3000
4330
ENDCHAR
STARTCHAR M
ENCODING 77
SWIDTH 534 0
DWIDTH 5 0
BBX 5 7 0 0
BITMAP
260340
316230
305230
306030
306030
303030
300030
ENDCHAR
STARTCHAR N
ENCODING 78
SWIDTH 422 0
DWIDTH 4 0
BBX 4 7 0 0
BITMAP
5103
3403
3403
3123
3033
3024
3005
ENDCHAR
STARTCHAR O
ENCODING 79
SWIDTH 446 0
DWIDTH 4 0
BBX 5 7 0 0
BITMAP
043200
300300
300300
300310
300300
300300
043200
ENDCHAR
STARTCHAR P
ENCODING 80
SWIDTH 341 0
DWIDTH 3 0
BBX 4 7 0 0
BITMAP
4340
3021
3030
4320
3000
3000
3000
ENDCHAR
STARTCHAR Q
ENCODING 81
SWIDTH 446 0
DWIDTH 4 0
BBX 5 10 0 -3
BITMAP
043200
300300
300300
300310
510600
435400
178200
025000
006000
015000
ENDCHAR
STARTCHAR R
ENCODING 82
SWIDTH 380 0
DWIDTH 4 0
BBX 4 7 0 0
BITMAP
4340
3012
6440
6450
3030
3003
3003
ENDCHAR
STARTCHAR S
ENCODING 83
SWIDTH 356 0
DWIDTH 4 0
BBX 4 7 0 0
BITMAP
2340
3000
3100
0320
0031
1003
2340
ENDCHAR
STARTCHAR T
ENCODING 84
SWIDTH 377 0
DWIDTH 4 0
BBX 4 7 0 0
BITMAP
3632
0300
0300
0300
0300
0300
0300
ENDCHAR
STARTCHAR U
ENCODING 85
SWIDTH 412 0
DWIDTH 4 0
BBX 4 7 0 0
BITMAP
3003
3003
3003
3003
3003
3003
2332
ENDCHAR
STARTCHAR V
ENCODING 86
SWIDTH 384 0
DWIDTH 4 0
BBX 4 7 0 0
BITMAP
3003
3003
3021
1230
0330
0330
0320
ENDCHAR
STARTCHAR W
ENCODING 87
SWIDTH 534 0
DWIDTH 5 0
BBX 5 7 0 0
BITMAP
300030
300030
305030
307030
306030
323330
240240
ENDCHAR
STARTCHAR X
ENCODING 88
SWIDTH 318 0
DWIDTH 3 0
BBX 3 7 0 0
BITMAP
3030
2130
0610
0600
1420
3030
3030
ENDCHAR
STARTCHAR Y
ENCODING 89
SWIDTH 370 0
DWIDTH 4 0
BBX 4 7 0 0
BITMAP
3003
3031
0340
0420
0300
0300
0300
ENDCHAR
STARTCHAR Z
ENCODING 90
SWIDTH 309 0
DWIDTH 3 0
BBX 3 7 0 0
BITMAP
2350
0030
0300
0300
1300
3000
5330
ENDCHAR
STARTCHAR bracketleft
ENCODING 91
SWIDTH 193 0
DWIDTH 2 0
BBX 2 9 0 -1
BITMAP
23
30
30
30
30
30
30
30
23
ENDCHAR
STARTCHAR backslash
ENCODING 92
SWIDTH 292 0
DWIDTH 3 0
BBX 3 9 0 -1
BITMAP
1000
3000
3000
1200
0300
0300
0220
0030
0030
ENDCHAR
STARTCHAR bracketright
ENCODING 93
SWIDTH 193 0
DWIDTH 2 0
BBX 2 9 0 -1
BITMAP
32
03
03
03
03
03
03
03
32
ENDCHAR
STARTCHAR asciicircum
ENCODING 94
SWIDTH 416 0
DWIDTH 4 0
BBX 4 4 0 3
BITMAP
0340
0440
2103
4003
ENDCHAR
STARTCHAR underscore
ENCODING 95
SWIDTH 556 0
DWIDTH 6 0
BBX 5 1 0 -1
BITMAP
233330
ENDCHAR
STARTCHAR grave
ENCODING 96
SWIDTH 201 0
DWIDTH 2 0
BBX 2 1 0 6
BITMAP
12
ENDCHAR
STARTCHAR a
ENCODING 97
SWIDTH 315 0
DWIDTH 3 0
BBX 3 5 0 0
BITMAP
2430
0030
0440
4030
4350
ENDCHAR
STARTCHAR b
ENCODING 98
SWIDTH 298 0
DWIDTH 3 0
BBX 3 7 0 0
BITMAP
3000
3000
4320
3030
3030
3030
4320
ENDCHAR
STARTCHAR c
ENCODING 99
SWIDTH 275 0
DWIDTH 3 0
BBX 3 5 0 0
BITMAP
2320
3000
3000
3000
2320
ENDCHAR
STARTCHAR d
ENCODING 100
SWIDTH 298 0
DWIDTH 3 0
BBX 3 7 0 0
BITMAP
0030
0030
2340
3030
3030
3030
2340
ENDCHAR
STARTCHAR e
ENCODING 101
SWIDTH 285 0
DWIDTH 3 0
BBX 3 5 0 0
BITMAP
2420
4030
4330
3000
1320
ENDCHAR
STARTCHAR f
ENCODING 102
SWIDTH 178 0
DWIDTH 2 0
BBX 3 7 0 0
BITMAP
1410
3000
6200
3000
3000
3000
3000
ENDCHAR
STARTCHAR g
ENCODING 103
SWIDTH 302 0
DWIDTH 3 0
BBX 3 8 0 -2
BITMAP
0020
2440
4040
4040
2510
3410
3040
4440
ENDCHAR
STARTCHAR h
ENCODING 104
SWIDTH 307 0
DWIDTH 3 0
BBX 3 7 0 0
BITMAP
3000
3000
4430
3030
3030
3030
3030
ENDCHAR
STARTCHAR i
ENCODING 105
SWIDTH 141 0
DWIDTH 1 0
BBX 1 7 0 0
BITMAP
30
00
30
30
30
30
30
ENDCHAR
STARTCHAR j
ENCODING 106
SWIDTH 141 0
DWIDTH 1 0
BBX 2 9 -1 -2
BITMAP
03
00
03
03
03
03
03
03
23
ENDCHAR
STARTCHAR k
ENCODING 107
SWIDTH 287 0
DWIDTH 3 0
BBX 3 7 0 0
BITMAP
3000
3000
3020
3400
4500
3120
3030
ENDCHAR
STARTCHAR l
ENCODING 108
SWIDTH 141 0
DWIDTH 1 0
BBX 1 7 0 0
BITMAP
30
30
30
30
30
30
30
ENDCHAR
STARTCHAR m
ENCODING 109
SWIDTH 407 0
DWIDTH 4 0
BBX 4 5 0 0
BITMAP
4335
3243
3333
3123
3003
ENDCHAR
STARTCHAR n
ENCODING 110
SWIDTH 307 0
DWIDTH 3 0
BBX 3 5 0 0
BITMAP
4430
3030
3030
3030
3030
ENDCHAR
STARTCHAR o
ENCODING 111
SWIDTH 309 0
DWIDTH 3 0
BBX 3 5 0 0
BITMAP
2320
3030
3030
3030
2320
ENDCHAR
STARTCHAR p
ENCODING 112
SWIDTH 299 0
DWIDTH 3 0
BBX 3 8 0 -2
BITMAP
1000
5320
3030
3030
3030
4320
3000
3000
ENDCHAR
STARTCHAR q
ENCODING 113
SWIDTH 286 0
DWIDTH 3 0
BBX 3 7 0 -2
BITMAP
2440
3030
3030
3030
2440
0030
0040
ENDCHAR
STARTCHAR r
ENCODING 114
SWIDTH 277 0
DWIDTH 3 0
BBX 3 5 0 0
BITMAP
4430
3010
3000
3000
3000
ENDCHAR
STARTCHAR s
ENCODING 115
SWIDTH 257 0
DWIDTH 3 0
BBX 3 5 0 0
BITMAP
3410
4000
1400
0130
3420
ENDCHAR
STARTCHAR t
ENCODING 116
SWIDTH 207 0
DWIDTH 2 0
BBX 2 7 0 0
BITMAP
10
31
53
31
31
31
13
ENDCHAR
STARTCHAR u
ENCODING 117
SWIDTH 307 0
DWIDTH 3 0
BBX 3 5 0 0
BITMAP
3030
3030
3030
3030
3340
ENDCHAR
STARTCHAR v
ENCODING 118
SWIDTH 285 0
DWIDTH 3 0
BBX 3 5 0 0
BITMAP
3030
3030
3210
1600
0500
ENDCHAR
STARTCHAR w
ENCODING 119
SWIDTH 396 0
DWIDTH 4 0
BBX 4 5 0 0
BITMAP
3003
3223
3333
3333
4333
ENDCHAR
STARTCHAR x
ENCODING 120
SWIDTH 244 0
DWIDTH 2 0
BBX 3 5 0 0
BITMAP
3300
2400
0500
3400
3210
ENDCHAR
STARTCHAR y
ENCODING 121
SWIDTH 285 0
DWIDTH 3 0
BBX 3 7 0 -2
BITMAP
3030
3030
3220
1600
0600
0300
3200
ENDCHAR
STARTCHAR z
ENCODING 122
SWIDTH 233 0
DWIDTH 2 0
BBX 2 5 0 0
BITMAP
25
03
03
30
53
ENDCHAR
STARTCHAR braceleft
ENCODING 123
SWIDTH 306 0
DWIDTH 3 0
BBX 3 9 0 -1
BITMAP
0130
0300
0300
0300
2300
0300
0300
0300
0130
ENDCHAR
STARTCHAR bar
ENCODING 124
SWIDTH 141 0
DWIDTH 1 0
BBX 1 9 0 -1
BITMAP
10
30
30
30
30
30
30
30
30
ENDCHAR
STARTCHAR braceright
ENCODING 125
SWIDTH 306 0
DWIDTH 3 0
BBX 3 9 0 -1
BITMAP
3100
0300
0300
0300
0320
0300
0300
0300
3100
ENDCHAR
STARTCHAR asciitilde
ENCODING 126
SWIDTH 433 0
DWIDTH 4 0
BBX 4 2 0 2
BITMAP
2412
2033
ENDCHAR
STARTCHAR uni00A0
ENCODING 160
SWIDTH 240 0
DWIDTH 2 0
BBX 1 1 0 0
BITMAP
00
ENDCHAR
STARTCHAR exclamdown
ENCODING 161
SWIDTH 141 0
DWIDTH 1 0
BBX 1 7 0 -1
BITMAP
30
00
30
30
30
30
30
ENDCHAR
STARTCHAR cent
ENCODING 162
SWIDTH 275 0
DWIDTH 3 0
BBX 3 7 0 -1
BITMAP
0300
1710
3310
3300
3300
2620
0300
ENDCHAR
STARTCHAR sterling
ENCODING 163
SWIDTH 331 0
DWIDTH 3 0
BBX 3 7 0 0
BITMAP
3330
3000
3000
2620
0300
0300
6330
ENDCHAR
STARTCHAR currency
ENCODING 164
SWIDTH 506 0
DWIDTH 5 0
BBX 5 5 0 1
BITMAP
100010
164610
120120
130210
244420
ENDCHAR
STARTCHAR yen
ENCODING 165
SWIDTH 370 0
DWIDTH 4 0
BBX 4 7 0 0
BITMAP
3003
3031
0330
0420
1630
1630
0300
ENDCHAR
STARTCHAR brokenbar
ENCODING 166
SWIDTH 141 0
DWIDTH 1 0
BBX 1 9 0 -1
BITMAP
10
30
30
30
00
10
30
30
30
ENDCHAR
STARTCHAR section
ENCODING 167
SWIDTH 303 0
DWIDTH 3 0
BBX 3 9 0 -1
BITMAP
2320
3010
2100
5930
3040
0000
0040
2030
2320
ENDCHAR
STARTCHAR dieresis
ENCODING 168
SWIDTH 241 0
DWIDTH 2 0
BBX 2 1 0 6
BITMAP
33
ENDCHAR
STARTCHAR copyright
ENCODING 169
SWIDTH 772 0
DWIDTH 8 0
BBX 8 8 0 0
BITMAP
00344200
04132230
31120031
40300004
40300004
31120031
04132230
00344200
ENDCHAR
STARTCHAR ordfeminine
ENCODING 170
SWIDTH 231 0
DWIDTH 2 0
BBX 2 3 0 4
BITMAP
24
25
46
ENDCHAR
STARTCHAR guillemotleft
ENCODING 171
SWIDTH 403 0
DWIDTH 4 0
BBX 4 4 0 1
BITMAP
0323
3240
2240
0323
ENDCHAR
STARTCHAR logicalnot
ENCODING 172
SWIDTH 557 0
DWIDTH 6 0
BBX 6 2 0 2
BITMAP
233341
000013
ENDCHAR
STARTCHAR uni00AD
ENCODING 173
SWIDTH 286 0
DWIDTH 3 0
BBX 3 1 0 3
BITMAP
2310
ENDCHAR
STARTCHAR registered
ENCODING 174
SWIDTH 772 0
DWIDTH 8 0
BBX 8 8 0 0
BITMAP
00344200
04142230
31033031
40034004
40064004
31033031
04111230
00344200
ENDCHAR
STARTCHAR macron
ENCODING 175
SWIDTH 266 0
DWIDTH 3 0
BBX 2 1 0 6
BITMAP
13
ENDCHAR
STARTCHAR degree
ENCODING 176
SWIDTH 350 0
DWIDTH 4 0
BBX 3 3 0 4
BITMAP
1330
3030
1430
ENDCHAR
STARTCHAR plusminus
ENCODING 177
SWIDTH 577 0
DWIDTH 6 0
BBX 6 5 0 0
BITMAP
003000
003000
135331
003000
134331
ENDCHAR
STARTCHAR uni00B2
ENCODING 178
SWIDTH 207 0
DWIDTH 2 0
BBX 2 3 0 4
BITMAP
24
03
52
ENDCHAR
STARTCHAR uni00B3
ENCODING 179
SWIDTH 214 0
DWIDTH 2 0
BBX 2 3 0 4
BITMAP
23
04
23
ENDCHAR
STARTCHAR acute
ENCODING 180
SWIDTH 201 0
DWIDTH 2 0
BBX 2 1 0 6
BITMAP
22
ENDCHAR
STARTCHAR uni00B5
ENCODING 181
SWIDTH 335 0
DWIDTH 3 0
BBX 3 7 0 -2
BITMAP
3030
3030
3030
3030
4350
3000
3000
ENDCHAR
STARTCHAR paragraph
ENCODING 182
SWIDTH 471 0
DWIDTH 5 0
BBX 5 7 0 0
BITMAP
1CF320
5FF320
4FF320
059320
001320
001320
001320
ENDCHAR
STARTCHAR periodcentered
ENCODING 183
SWIDTH 181 0
DWIDTH 2 0
BBX 1 1 0 3
BITMAP
30
ENDCHAR
STARTCHAR cedilla
ENCODING 184
SWIDTH 232 0
DWIDTH 2 0
BBX 2 2 0 -2
BITMAP
24
13
ENDCHAR
STARTCHAR uni00B9
ENCODING 185
SWIDTH 176 0
DWIDTH 2 0
BBX 2 3 0 4
BITMAP
41
31
42
ENDCHAR
STARTCHAR ordmasculine
ENCODING 186
SWIDTH 201 0
DWIDTH 2 0
BBX 2 3 0 4
BITMAP
43
33
33
ENDCHAR
STARTCHAR guillemotright
ENCODING 187
SWIDTH 403 0
DWIDTH 4 0
BBX 4 4 0 1
BITMAP
3230
0423
0323
3230
ENDCHAR
STARTCHAR onequarter
ENCODING 188
SWIDTH 527 0
DWIDTH 5 0
BBX 5 7 0 0
BITMAP
230030
030300
150300
003000
003310
030330
030450
ENDCHAR
STARTCHAR onehalf
ENCODING 189
SWIDTH 540 0
DWIDTH 5 0
BBX 5 7 0 0
BITMAP
230030
030300
150300
003000
003240
030030
030430
ENDCHAR
STARTCHAR threequarters
ENCODING 190
SWIDTH 517 0
DWIDTH 5 0
BBX 5 7 0 0
BITMAP
230030
040300
230300
003000
003220
030330
030450
ENDCHAR
STARTCHAR questiondown
ENCODING 191
SWIDTH 300 0
DWIDTH 3 0
BBX 3 7 0 -1
BITMAP
0300
0000
0300
0300
1200
3000
3330
ENDCHAR
STARTCHAR Agrave
ENCODING 192
SWIDTH 414 0
DWIDTH 4 0
BBX 4 9 0 0
BITMAP
0300
0000
0240
0440
0440
0431
3545
4004
3003
ENDCHAR
STARTCHAR Aacute
ENCODING 193
SWIDTH 414 0
DWIDTH 4 0
BBX 4 9 0 0
BITMAP
0030
0000
0240
0440
0440
0431
3545
4004
3003
ENDCHAR
STARTCHAR Acircumflex
ENCODING 194
SWIDTH 414 0
DWIDTH 4 0
BBX 4 9 0 0
BITMAP
0010
0230
0240
0440
0440
0431
3545
4004
3003
ENDCHAR
STARTCHAR Atilde
ENCODING 195
SWIDTH 414 0
DWIDTH 4 0
BBX 4 8 0 0
BITMAP
0120
0240
0440
0440
0431
3545
4004
3003
ENDCHAR
STARTCHAR Adieresis
ENCODING 196
SWIDTH 414 0
DWIDTH 4 0
BBX 4 9 0 0
BITMAP
0330
0000
0240
0440
0440
0431
3545
4004
3003
ENDCHAR
STARTCHAR Aring
ENCODING 197
SWIDTH 414 0
DWIDTH 4 0
BBX 4 9 0 0
BITMAP
0220
0220
0240
0440
0440
0431
3545
4004
3003
ENDCHAR
STARTCHAR AE
ENCODING 198
SWIDTH 545 0
DWIDTH 5 0
BBX 5 7 0 0
BITMAP
003530
005300
014300
051530
074300
311300
401530
ENDCHAR
STARTCHAR Ccedilla
ENCODING 199
SWIDTH 366 0
DWIDTH 4 0
BBX 4 9 0 -2
BITMAP
0431
3000
3000
3000
3000
3000
0431
0140
0130
ENDCHAR
STARTCHAR Egrave
ENCODING 200
SWIDTH 309 0
DWIDTH 3 0
BBX 3 9 0 0
BITMAP
0300
0000
4320
3000
3000
4320
3000
3000
4320
ENDCHAR
STARTCHAR Eacute
ENCODING 201
SWIDTH 309 0
DWIDTH 3 0
BBX 3 9 0 0
BITMAP
0220
0000
4320
3000
3000
4320
3000
3000
4320
ENDCHAR
STARTCHAR Ecircumflex
ENCODING 202
SWIDTH 309 0
DWIDTH 3 0
BBX 3 9 0 0
BITMAP
0100
0310
4320
3000
3000
4320
3000
3000
4320
ENDCHAR
STARTCHAR Edieresis
ENCODING 203
SWIDTH 309 0
DWIDTH 3 0
BBX 3 9 0 0
BITMAP
0330
0000
4320
3000
3000
4320
3000
3000
4320
ENDCHAR
STARTCHAR Igrave
ENCODING 204
SWIDTH 141 0
DWIDTH 1 0
BBX 1 9 0 0
BITMAP
30
00
30
30
30
30
30
30
30
ENDCHAR
STARTCHAR Iacute
ENCODING 205
SWIDTH 141 0
DWIDTH 1 0
BBX 2 9 0 0
BITMAP
12
00
30
30
30
30
30
30
30
ENDCHAR
STARTCHAR Icircumflex
ENCODING 206
SWIDTH 141 0
DWIDTH 1 0
BBX 2 9 0 0
BITMAP
10
32
30
30
30
30
30
30
30
ENDCHAR
STARTCHAR Idieresis
ENCODING 207
SWIDTH 141 0
DWIDTH 1 0
BBX 2 9 0 0
BITMAP
33
00
30
30
30
30
30
30
30
ENDCHAR
STARTCHAR Eth
ENCODING 208
SWIDTH 396 0
DWIDTH 4 0
BBX 4 7 0 0
BITMAP
4340
3003
3003
5303
3003
3003
4340
ENDCHAR
STARTCHAR Ntilde
ENCODING 209
SWIDTH 422 0
DWIDTH 4 0
BBX 4 8 0 0
BITMAP
0120
5103
3403
3403
3123
3033
3024
3005
ENDCHAR
STARTCHAR Ograve
ENCODING 210
SWIDTH 446 0
DWIDTH 4 0
BBX 5 9 0 0
BITMAP
021000
000000
043200
300300
300300
300310
300300
300300
043200
ENDCHAR
STARTCHAR Oacute
ENCODING 211
SWIDTH 446 0
DWIDTH 4 0
BBX 5 9 0 0
BITMAP
003000
000000
043200
300300
300300
300310
300300
300300
043200
ENDCHAR
STARTCHAR Ocircumflex
ENCODING 212
SWIDTH 446 0
DWIDTH 4 0
BBX 5 9 0 0
BITMAP
001000
023000
043200
300300
300300
300310
300300
300300
043200
ENDCHAR
STARTCHAR Otilde
ENCODING 213
SWIDTH 446 0
DWIDTH 4 0
BBX 5 8 0 0
BITMAP
013000
043200
300300
300300
300310
300300
300300
043200
ENDCHAR
STARTCHAR Odieresis
ENCODING 214
SWIDTH 446 0
DWIDTH 4 0
BBX 5 9 0 0
BITMAP
033000
000000
043200
300300
300300
300310
300300
300300
043200
ENDCHAR
STARTCHAR multiply
ENCODING 215
SWIDTH 445 0
DWIDTH 4 0
BBX 4 4 0 1
BITMAP
1002
0422
0260
2204
ENDCHAR
STARTCHAR Oslash
ENCODING 216
SWIDTH 446 0
DWIDTH 4 0
BBX 5 7 0 0
BITMAP
043500
301600
303300
303310
330300
330300
343200
ENDCHAR
STARTCHAR Ugrave
ENCODING 217
SWIDTH 412 0
DWIDTH 4 0
BBX 4 9 0 0
BITMAP
0300
0000
3003
3003
3003
3003
3003
3003
2332
ENDCHAR
STARTCHAR Uacute
ENCODING 218
SWIDTH 412 0
DWIDTH 4 0
BBX 4 9 0 0
BITMAP
0030
0000
3003
3003
3003
3003
3003
3003
2332
ENDCHAR
STARTCHAR Ucircumflex
ENCODING 219
SWIDTH 412 0
DWIDTH 4 0
BBX 4 9 0 0
BITMAP
0010
0230
3003
3003
3003
3003
3003
3003
2332
ENDCHAR
STARTCHAR Udieresis
ENCODING 220
SWIDTH 412 0
DWIDTH 4 0
BBX 4 9 0 0
BITMAP
0330
0000
3003
3003
3003
3003
3003
3003
2332
ENDCHAR
STARTCHAR Yacute
ENCODING 221
SWIDTH 370 0
DWIDTH 4 0
BBX 4 9 0 0
BITMAP
0130
0000
3003
3031
0340
0420
0300
0300
0300
ENDCHAR
STARTCHAR Thorn
ENCODING 222
SWIDTH 341 0
DWIDTH 3 0
BBX 4 7 0 0
BITMAP
3000
4330
3031
3030
4320
3000
3000
ENDCHAR
STARTCHAR germandbls
ENCODING 223
SWIDTH 327 0
DWIDTH 3 0
BBX 3 7 0 0
BITMAP
2330
3030
3340
3450
3030
3030
3320
ENDCHAR
STARTCHAR agrave
ENCODING 224
SWIDTH 315 0
DWIDTH 3 0
BBX 3 7 0 0
BITMAP
0400
0000
2430
0030
0440
4030
4350
ENDCHAR
STARTCHAR aacute
ENCODING 225
SWIDTH 315 0
DWIDTH 3 0
BBX 3 7 0 0
BITMAP
0300
0000
2430
0030
0440
4030
4350
ENDCHAR
STARTCHAR acircumflex
ENCODING 226
SWIDTH 315 0
DWIDTH 3 0
BBX 3 7 0 0
BITMAP
0510
0010
2430
0030
0440
4030
4350
ENDCHAR
STARTCHAR atilde
ENCODING 227
SWIDTH 315 0
DWIDTH 3 0
BBX 3 6 0 0
BITMAP
1210
2430
0030
0440
4030
4350
ENDCHAR
STARTCHAR adieresis
ENCODING 228
SWIDTH 315 0
DWIDTH 3 0
BBX 3 7 0 0
BITMAP
1320
0000
2430
0030
0440
4030
4350
ENDCHAR
STARTCHAR aring
ENCODING 229
SWIDTH 315 0
DWIDTH 3 0
BBX 3 7 0 0
BITMAP
0400
0400
2430
0030
0440
4030
4350
ENDCHAR
STARTCHAR ae
ENCODING 230
SWIDTH 450 0
DWIDTH 5 0
BBX 5 5 0 0
BITMAP
234400
005120
136310
303000
335410
ENDCHAR
STARTCHAR ccedilla
ENCODING 231
SWIDTH 275 0
DWIDTH 3 0
BBX 3 7 0 -2
BITMAP
2320
3000
3000
3000
2320
0500
0300
ENDCHAR
STARTCHAR egrave
ENCODING 232
SWIDTH 285 0
DWIDTH 3 0
BBX 3 7 0 0
BITMAP
0300
0000
2420
4030
4330
3000
1320
ENDCHAR
STARTCHAR eacute
ENCODING 233
SWIDTH 285 0
DWIDTH 3 0
BBX 3 7 0 0
BITMAP
0300
0000
2420
4030
4330
3000
1320
ENDCHAR
STARTCHAR ecircumflex
ENCODING 234
SWIDTH 285 0
DWIDTH 3 0
BBX 3 7 0 0
BITMAP
0510
0010
2420
4030
4330
3000
1320
ENDCHAR
STARTCHAR edieresis
ENCODING 235
SWIDTH 285 0
DWIDTH 3 0
BBX 3 7 0 0
BITMAP
1320
0000
2420
4030
4330
3000
1320
ENDCHAR
STARTCHAR igrave
ENCODING 236
SWIDTH 141 0
DWIDTH 1 0
BBX 1 7 0 0
BITMAP
40
00
30
30
30
30
30
ENDCHAR
STARTCHAR iacute
ENCODING 237
SWIDTH 141 0
DWIDTH 1 0
BBX 2 7 0 0
BITMAP
21
00
30
30
30
30
30
ENDCHAR
STARTCHAR icircumflex
ENCODING 238
SWIDTH 141 0
DWIDTH 1 0
BBX 2 7 0 0
BITMAP
52
01
30
30
30
30
30
ENDCHAR
STARTCHAR idieresis
ENCODING 239
SWIDTH 141 0
DWIDTH 1 0
BBX 2 7 0 0
BITMAP
33
00
30
30
30
30
30
ENDCHAR
STARTCHAR eth
ENCODING 240
SWIDTH 319 0
DWIDTH 3 0
BBX 3 7 0 0
BITMAP
1310
0420
2340
3030
3030
3030
2320
ENDCHAR
STARTCHAR ntilde
ENCODING 241
SWIDTH 307 0
DWIDTH 3 0
BBX 3 6 0 0
BITMAP
1210
4430
3030
3030
3030
3030
ENDCHAR
STARTCHAR ograve
ENCODING 242
SWIDTH 309 0
DWIDTH 3 0
BBX 3 7 0 0
BITMAP
0400
0000
2320
3030
3030
3030
2320
ENDCHAR
STARTCHAR oacute
ENCODING 243
SWIDTH 309 0
DWIDTH 3 0
BBX 3 7 0 0
BITMAP
0300
0000
2320
3030
3030
3030
2320
ENDCHAR
STARTCHAR ocircumflex
ENCODING 244
SWIDTH 309 0
DWIDTH 3 0
BBX 3 7 0 0
BITMAP
0510
0010
2320
3030
3030
3030
2320
ENDCHAR
STARTCHAR otilde
ENCODING 245
SWIDTH 309 0
DWIDTH 3 0
BBX 3 6 0 0
BITMAP
1210
2320
3030
3030
3030
2320
ENDCHAR
STARTCHAR odieresis
ENCODING 246
SWIDTH 309 0
DWIDTH 3 0
BBX 3 7 0 0
BITMAP
1320
0000
2320
3030
3030
3030
2320
ENDCHAR
STARTCHAR divide
ENCODING 247
SWIDTH 577 0
DWIDTH 6 0
BBX 6 5 0 0
BITMAP
003000
000000
133331
000000
003000
ENDCHAR
STARTCHAR oslash
ENCODING 248
SWIDTH 309 0
DWIDTH 3 0
BBX 3 5 0 0
BITMAP
2350
3240
3330
4330
4320
ENDCHAR
STARTCHAR ugrave
ENCODING 249
SWIDTH 307 0
DWIDTH 3 0
BBX 3 7 0 0
BITMAP
0400
0000
3030
3030
3030
3030
3340
ENDCHAR
STARTCHAR uacute
ENCODING 250
SWIDTH 307 0
DWIDTH 3 0
BBX 3 7 0 0
BITMAP
0300
0000
3030
3030
3030
3030
3340
ENDCHAR
STARTCHAR ucircumflex
ENCODING 251
SWIDTH 307 0
DWIDTH 3 0
BBX 3 7 0 0
BITMAP
0510
0010
3030
3030
3030
3030
3340
ENDCHAR
STARTCHAR udieresis
ENCODING 252
SWIDTH 307 0
DWIDTH 3 0
BBX 3 7 0 0
BITMAP
1320
0000
3030
3030
3030
3030
3340
ENDCHAR
STARTCHAR yacute
ENCODING 253
SWIDTH 285 0
DWIDTH 3 0
BBX 3 9 0 -2
BITMAP
0400
0000
3030
3030
3220
1600
0600
0300
3200
ENDCHAR
STARTCHAR thorn
ENCODING 254
SWIDTH 299 0
DWIDTH 3 0
BBX 3 9 0 -2
BITMAP
3000
3000
5320
3030
3030
3030
4320
3000
3000
ENDCHAR
STARTCHAR ydieresis
ENCODING 255
SWIDTH 285 0
DWIDTH 3 0
BBX 3 9 0 -2
BITMAP
3300
0000
3030
3030
3220
1600
0600
0300
3200
ENDCHAR
STARTCHAR dotlessi
ENCODING 305
SWIDTH 141 0
DWIDTH 1 0
BBX 1 5 0 0
BITMAP
30
30
30
30
30
ENDCHAR
STARTCHAR OE
ENCODING 338
SWIDTH 505 0
DWIDTH 5 0
BBX 5 7 0 0
BITMAP
045320
303000
303000
304320
303000
303000
045320
ENDCHAR
STARTCHAR oe
ENCODING 339
SWIDTH 492 0
DWIDTH 5 0
BBX 5 5 0 0
BITMAP
232420
305030
305330
306000
234330
ENDCHAR
STARTCHAR Wcircumflex
ENCODING 372
SWIDTH 534 0
DWIDTH 5 0
BBX 5 9 0 0
BITMAP
001000
003200
300030
300030
305030
307030
306030
323330
240240
ENDCHAR
STARTCHAR wcircumflex
ENCODING 373
SWIDTH 396 0
DWIDTH 4 0
BBX 4 7 0 0
BITMAP
0330
0110
3003
3223
3333
3333
4333
ENDCHAR
STARTCHAR Ycircumflex
ENCODING 374
SWIDTH 370 0
DWIDTH 4 0
BBX 4 9 0 0
BITMAP
0100
0320
3003
3031
0340
0420
0300
0300
0300
ENDCHAR
STARTCHAR ycircumflex
ENCODING 375
SWIDTH 285 0
DWIDTH 3 0
BBX 3 9 0 -2
BITMAP
1500
1000
3030
3030
3220
1600
0600
0300
3200
ENDCHAR
STARTCHAR Ydieresis
ENCODING 376
SWIDTH 370 0
DWIDTH 4 0
BBX 4 9 0 0
BITMAP
0330
0000
3003
3031
0340
0420
0300
0300
0300
ENDCHAR
STARTCHAR uni0237
ENCODING 567
SWIDTH 141 0
DWIDTH 1 0
BBX 2 7 -1 -2
BITMAP
03
03
03
03
03
03
23
ENDCHAR
STARTCHAR circumflex
ENCODING 710
SWIDTH 280 0
DWIDTH 3 0
BBX 2 2 0 5
BITMAP
15
10
ENDCHAR
STARTCHAR ring
ENCODING 730
SWIDTH 238 0
DWIDTH 2 0
BBX 2 2 0 5
BITMAP
23
23
ENDCHAR
STARTCHAR tilde
ENCODING 732
SWIDTH 301 0
DWIDTH 3 0
BBX 3 1 0 5
BITMAP
1210
ENDCHAR
STARTCHAR gravecomb
ENCODING 768
SWIDTH 0 0
DWIDTH 0 0
BBX 2 1 0 6
BITMAP
12
ENDCHAR
STARTCHAR acutecomb
ENCODING 769
SWIDTH 0 0
DWIDTH 0 0
BBX 2 1 0 6
BITMAP
22
ENDCHAR
STARTCHAR uni0302
ENCODING 770
SWIDTH 0 0
DWIDTH 0 0
BBX 2 2 0 5
BITMAP
15
10
ENDCHAR
STARTCHAR tildecomb
ENCODING 771
SWIDTH 0 0
DWIDTH 0 0
BBX 3 1 0 5
BITMAP
1210
ENDCHAR
STARTCHAR uni0307
ENCODING 775
SWIDTH 0 0
DWIDTH 0 0
BBX 1 1 0 6
BITMAP
30
ENDCHAR
STARTCHAR uni0308
ENCODING 776
SWIDTH 0 0
DWIDTH 0 0
BBX 2 1 0 6
BITMAP
33
ENDCHAR
STARTCHAR uni030A
ENCODING 778
SWIDTH 0 0
DWIDTH 0 0
BBX 2 2 0 5
BITMAP
23
23
ENDCHAR
STARTCHAR uni0327
ENCODING 807
SWIDTH 0 0
DWIDTH 0 0
BBX 2 2 0 -2
BITMAP
24
13
ENDCHAR
STARTCHAR Wgrave
ENCODING 7808
SWIDTH 534 0
DWIDTH 5 0
BBX 5 9 0 0
BITMAP
003000
000000
300030
300030
305030
307030
306030
323330
240240
ENDCHAR
STARTCHAR wgrave
ENCODING 7809
SWIDTH 396 0
DWIDTH 4 0
BBX 4 7 0 0
BITMAP
0310
0000
3003
3223
3333
3333
4333
ENDCHAR
STARTCHAR Wacute
ENCODING 7810
SWIDTH 534 0
DWIDTH 5 0
BBX 5 9 0 0
BITMAP
002200
000000
300030
300030
305030
307030
306030
323330
240240
ENDCHAR
STARTCHAR wacute
ENCODING 7811
SWIDTH 396 0
DWIDTH 4 0
BBX 4 7 0 0
BITMAP
0130
0000
3003
3223
3333
3333
4333
ENDCHAR
STARTCHAR Wdieresis
ENCODING 7812
SWIDTH 534 0
DWIDTH 5 0
BBX 5 9 0 0
BITMAP
003300
000000
300030
300030
305030
307030
306030
323330
240240
ENDCHAR
STARTCHAR wdieresis
ENCODING 7813
SWIDTH 396 0
DWIDTH 4 0
BBX 4 7 0 0
BITMAP
0330
0000
3003
3223
3333
3333
4333
ENDCHAR
STARTCHAR uni1E9E
ENCODING 7838
SWIDTH 375 0
DWIDTH 4 0
BBX 4 7 0 0
BITMAP
2340
3030
3350
3351
3003
3012
3330
ENDCHAR
STARTCHAR Ygrave
ENCODING 7922
SWIDTH 370 0
DWIDTH 4 0
BBX 4 9 0 0
BITMAP
0300
0000
3003
3031
0340
0420
0300
0300
0300
ENDCHAR
STARTCHAR ygrave
ENCODING 7923
SWIDTH 285 0
DWIDTH 3 0
BBX 3 9 0 -2
BITMAP
0300
0000
3030
3030
3220
1600
0600
0300
3200
ENDCHAR
STARTCHAR endash
ENCODING 8211
SWIDTH 425 0
DWIDTH 4 0
BBX 4 1 0 2
BITMAP
2332
ENDCHAR
STARTCHAR emdash
ENCODING 8212
SWIDTH 770 0
DWIDTH 8 0
BBX 8 1 0 2
BITMAP
23333331
ENDCHAR
STARTCHAR quoteleft
ENCODING 8216
SWIDTH 145 0
DWIDTH 1 0
BBX 1 2 0 5
BITMAP
30
30
ENDCHAR
STARTCHAR quoteright
ENCODING 8217
SWIDTH 145 0
DWIDTH 1 0
BBX 1 2 0 5
BITMAP
30
40
ENDCHAR
STARTCHAR quotesinglbase
ENCODING 8218
SWIDTH 145 0
DWIDTH 1 0
BBX 1 2 0 -1
BITMAP
30
40
ENDCHAR
STARTCHAR quotedblleft
ENCODING 8220
SWIDTH 219 0
DWIDTH 2 0
BBX 2 2 0 5
BITMAP
34
33
ENDCHAR
STARTCHAR quotedblright
ENCODING 8221
SWIDTH 219 0
DWIDTH 2 0
BBX 2 2 0 5
BITMAP
33
44
ENDCHAR
STARTCHAR quotedblbase
ENCODING 8222
SWIDTH 219 0
DWIDTH 2 0
BBX 2 2 0 -1
BITMAP
33
44
ENDCHAR
STARTCHAR bullet
ENCODING 8226
SWIDTH 355 0
DWIDTH 4 0
BBX 3 3 0 2
BITMAP
2D90
5FD0
0630
ENDCHAR
STARTCHAR ellipsis
ENCODING 8230
SWIDTH 651 0
DWIDTH 7 0
BBX 6 1 0 0
BITMAP
300303
ENDCHAR
STARTCHAR guilsinglleft
ENCODING 8249
SWIDTH 263 0
DWIDTH 3 0
BBX 3 4 0 1
BITMAP
0310
3200
2200
0310
ENDCHAR
STARTCHAR guilsinglright
ENCODING 8250
SWIDTH 263 0
DWIDTH 3 0
BBX 3 4 0 1
BITMAP
3100
0410
0310
3100
ENDCHAR
STARTCHAR fraction
ENCODING 8260
SWIDTH 152 0
DWIDTH 2 0
BBX 4 7 -1 0
BITMAP
0003
0030
0030
0300
0300
3000
3000
ENDCHAR
STARTCHAR uni2074
ENCODING 8308
SWIDTH 247 0
DWIDTH 2 0
BBX 2 3 0 4
BITMAP
03
33
35
ENDCHAR
STARTCHAR Euro
ENCODING 8364
SWIDTH 391 0
DWIDTH 4 0
BBX 4 7 0 0
BITMAP
0431
2100
5310
5310
3000
1300
0332
ENDCHAR
STARTCHAR trademark
ENCODING 8482
SWIDTH 506 0
DWIDTH 5 0
BBX 5 4 0 3
BITMAP
CE7370
033740
033830
011010
ENDCHAR
STARTCHAR minus
ENCODING 8722
SWIDTH 557 0
DWIDTH 6 0
BBX 6 1 0 3
BITMAP
7DDDD2
ENDCHAR
STARTCHAR uni2215
ENCODING 8725
SWIDTH 259 0
DWIDTH 3 0
BBX 3 7 0 0
BITMAP
0030
0210
0300
0300
2100
3000
3000
ENDCHAR
STARTCHAR .notdef
ENCODING -1
SWIDTH 500 0
DWIDTH 5 0
BBX 5 9 0 -2
BITMAP
688860
800080
800080
800080
800080
800080
800080
800080
688860
ENDCHAR
STARTCHAR NULL
ENCODING -1
SWIDTH 600 0
DWIDTH 6 0
BBX 1 1 0 0
BITMAP
00
ENDCHAR
STARTCHAR acutecomb.case
ENCODING -1
SWIDTH 0 0
DWIDTH 0 0
BBX 2 1 0 8
BITMAP
21
ENDCHAR
STARTCHAR uni0302.case
ENCODING -1
SWIDTH 0 0
DWIDTH 0 0
BBX 2 2 0 7
BITMAP
01
23
ENDCHAR
STARTCHAR uni0308.case
ENCODING -1
SWIDTH 0 0
DWIDTH 0 0
BBX 2 1 0 8
BITMAP
33
ENDCHAR
STARTCHAR uni0307.case
ENCODING -1
SWIDTH 0 0
DWIDTH 0 0
BBX 1 1 0 8
BITMAP
30
ENDCHAR
STARTCHAR gravecomb.case
ENCODING -1
SWIDTH 0 0
DWIDTH 0 0
BBX 2 1 0 8
BITMAP
21
ENDCHAR
STARTCHAR uni030A.case
ENCODING -1
SWIDTH 0 0
DWIDTH 0 0
BBX 2 2 0 7
BITMAP
22
22
ENDCHAR
STARTCHAR tildecomb.case
ENCODING -1
SWIDTH 0 0
DWIDTH 0 0
BBX 3 1 0 7
BITMAP
1210
ENDCHAR
ENDFONT
